<svg id="Layer_1" data-name="Layer 1" xmlns="http://www.w3.org/2000/svg" viewBox="0 0 101.35 99.27"><defs><style>.cls-1{fill:#ef3e23;}</style></defs><path class="cls-1" d="M107.08,70.35a38.72,38.72,0,1,0,38.72,38.72A38.73,38.73,0,0,0,107.08,70.35Zm.3,62.35A23.63,23.63,0,1,1,131,109.07,23.63,23.63,0,0,1,107.38,132.7Z" transform="translate(-55.3 -58.37)"/><rect class="cls-1" x="44.1" width="15.37" height="15.37"/><rect class="cls-1" x="44.39" y="83.89" width="15.37" height="15.37"/><rect class="cls-1" x="85.98" y="43.02" width="15.37" height="15.37"/><rect class="cls-1" y="42.14" width="15.37" height="15.37"/><rect class="cls-1" x="69.96" y="69.73" width="15.37" height="15.37" transform="translate(-87.3 19.22) rotate(-45)"/><rect class="cls-1" x="130.86" y="130.63" width="15.37" height="15.37" transform="translate(-112.52 80.11) rotate(-45)"/><rect class="cls-1" x="127.24" y="69.09" width="15.37" height="15.37" transform="translate(-70.07 59.53) rotate(-45)"/><rect class="cls-1" x="67.28" y="129.05" width="15.37" height="15.37" transform="translate(-130.03 34.69) rotate(-45)"/></svg>