<svg id="Layer_1" data-name="Layer 1" xmlns="http://www.w3.org/2000/svg" viewBox="0 0 144 124.14"><defs><style>.cls-1{fill:#ef3e23;}</style></defs><circle class="cls-1" cx="54.9" cy="30.5" r="30.5"/><path class="cls-1" d="M141.92,160.32l-4.86,4.87-6.5-6.5,5.4-5.4a23.42,23.42,0,0,1-2.49-7.07H125.3V137h8.38a23.12,23.12,0,0,1,3.83-8.45l-5.34-5.35,1.86-1.87a37.4,37.4,0,0,0-25.67-10.16H73.64A37.54,37.54,0,0,0,36.1,148.74v21.54H145.89v-7.43A22.83,22.83,0,0,1,141.92,160.32Z" transform="translate(-36.1 -46.14)"/><path class="cls-1" d="M155.74,123a19,19,0,1,0,19,19A19,19,0,0,0,155.74,123Zm.15,30.65a11.62,11.62,0,1,1,11.61-11.62A11.62,11.62,0,0,1,155.89,153.68Z" transform="translate(-36.1 -46.14)"/><rect class="cls-1" x="115.86" y="71" width="7.56" height="7.56"/><rect class="cls-1" x="116.01" y="112.24" width="7.56" height="7.56"/><rect class="cls-1" x="136.45" y="92.14" width="7.56" height="7.56"/><rect class="cls-1" x="94.18" y="91.71" width="7.56" height="7.56"/><rect class="cls-1" x="137.5" y="122.73" width="7.56" height="7.56" transform="translate(-84.18 90.81) rotate(-45)"/><rect class="cls-1" x="167.43" y="152.66" width="7.56" height="7.56" transform="translate(-96.58 120.74) rotate(-45)"/><rect class="cls-1" x="165.65" y="122.41" width="7.56" height="7.56" transform="translate(-75.71 110.63) rotate(-45)"/><rect class="cls-1" x="136.18" y="151.88" width="7.56" height="7.56" transform="translate(-105.18 98.42) rotate(-45)"/></svg>