<svg id="Layer_1" data-name="Layer 1" xmlns="http://www.w3.org/2000/svg" viewBox="0 0 122.64 152.01"><defs><style>.cls-1{fill:none;stroke:#ef3e23;stroke-miterlimit:10;stroke-width:14px;}</style></defs><path class="cls-1" d="M53.81,93.92a42.28,42.28,0,0,1,.45-7.78c.31-2,.68-3.94,1.12-5.9a48.82,48.82,0,0,1,4.5-11.87,58.85,58.85,0,0,1,4-6.56,57.34,57.34,0,0,1,4.56-5.52,40.59,40.59,0,0,1,5-4.69A51.59,51.59,0,0,1,80,47c2.18-1.22,4.44-2.3,6.72-3.31,1.78-.79,3.63-1.43,5.47-2A39.68,39.68,0,0,1,98.84,40a56.15,56.15,0,0,1,11.21-.73c2,.1,4,.37,6,.56a34,34,0,0,1,6.62,1.36,56.73,56.73,0,0,1,12.09,5,51.15,51.15,0,0,1,4.67,3c1.61,1.15,3.18,2.37,4.69,3.64a45.21,45.21,0,0,1,5.83,6,46,46,0,0,1,3.36,4.52c1.23,1.92,2.33,3.91,3.4,5.92A41.93,41.93,0,0,1,160,77.35,40.81,40.81,0,0,1,161.52,84c.1.8.29,1.58.41,2.38a38.08,38.08,0,0,1,.46,7.69c0,1.35-.07,2.71-.15,4.05-.05.78-.21,1.55-.3,2.33a46,46,0,0,1-1.45,7.26,58.78,58.78,0,0,1-2.58,7.39c-.7,1.65-1.55,3.21-2.35,4.8a53.9,53.9,0,0,1-3.12,5,18.34,18.34,0,0,1-1.22,1.57c-1.76,2.12-3.52,4.24-5.3,6.35-1.14,1.37-2.31,2.72-3.46,4.08-2,2.37-4,4.75-6,7.12s-3.89,4.53-5.82,6.8c-1.76,2.07-3.49,4.16-5.25,6.23-.68.81-1.39,1.58-2.07,2.39-1.32,1.57-2.62,3.15-3.93,4.72-.57.68-1.15,1.34-1.72,2l-6.57,7.69c-.87,1-1.73,2.05-2.59,3.08-.3.35-.49.34-.82-.05-1.24-1.47-2.48-2.95-3.73-4.42s-2.56-3-3.82-4.46-2.53-3-3.8-4.56c-.78-.93-1.59-1.85-2.39-2.78-1-1.2-2.06-2.42-3.1-3.62-1.43-1.68-2.86-3.34-4.28-5s-2.72-3.27-4.09-4.89c-.79-.94-1.61-1.85-2.41-2.77-1.08-1.26-2.15-2.53-3.23-3.8-.77-.91-1.56-1.81-2.33-2.73-1-1.13-1.91-2.28-2.87-3.42-.56-.67-1.17-1.31-1.73-2-1.42-1.73-2.83-3.47-4.25-5.21-.53-.64-1.1-1.26-1.57-1.94a63.91,63.91,0,0,1-3.71-5.88,48.92,48.92,0,0,1-3.8-8.8c-.34-1.07-.72-2.13-1-3.21-.54-2.18-1-4.37-1.33-6.6A56.83,56.83,0,0,1,53.81,93.92Zm54.21,20A22.28,22.28,0,1,0,85.85,91.45,22.23,22.23,0,0,0,108,113.87Z" transform="translate(-46.79 -32.21)"/></svg>