<svg id="Layer_1" data-name="Layer 1" xmlns="http://www.w3.org/2000/svg" viewBox="0 0 84.09 88.73"><defs><style>.cls-1{fill:#ef3e23;}</style></defs><path class="cls-1" d="M123.9,121.9a13.75,13.75,0,1,0,16.72,9.91A13.74,13.74,0,0,0,123.9,121.9Zm5.58,21.42a8.39,8.39,0,1,1,6.05-10.21A8.39,8.39,0,0,1,129.48,143.32Z" transform="translate(-66.06 -63.84)"/><rect class="cls-1" x="120.79" y="117.69" width="5.46" height="5.46" transform="translate(-92.02 -29.52) rotate(-14.33)"/><rect class="cls-1" x="128.26" y="146.53" width="5.46" height="5.46" transform="translate(-98.93 -26.78) rotate(-14.33)"/><rect class="cls-1" x="138.98" y="128.81" width="5.46" height="5.46" transform="translate(-94.21 -24.68) rotate(-14.33)"/><rect class="cls-1" x="109.32" y="136.06" width="5.46" height="5.46" transform="translate(-96.93 -31.79) rotate(-14.33)"/><rect class="cls-1" x="111.66" y="124.19" width="5.46" height="5.46" transform="translate(-119.18 96.72) rotate(-59.33)"/><rect class="cls-1" x="137.97" y="139.79" width="5.46" height="5.46" transform="translate(-119.71 126.99) rotate(-59.33)"/><rect class="cls-1" x="131.31" y="118.93" width="5.46" height="5.46" transform="translate(-105.03 111.05) rotate(-59.33)"/><rect class="cls-1" x="115.95" y="144.83" width="5.46" height="5.46" transform="translate(-134.84 110.53) rotate(-59.33)"/><path class="cls-1" d="M98.1,75.25a24,24,0,1,0,24,24A24,24,0,0,0,98.1,75.25Zm.18,38.57A14.62,14.62,0,1,1,112.9,99.2,14.63,14.63,0,0,1,98.28,113.82Z" transform="translate(-66.06 -63.84)"/><rect class="cls-1" x="27.28" y="3.99" width="9.51" height="9.51"/><rect class="cls-1" x="27.46" y="55.89" width="9.51" height="9.51"/><rect class="cls-1" x="53.19" y="30.6" width="9.51" height="9.51"/><rect class="cls-1" y="30.06" width="9.51" height="9.51"/><rect class="cls-1" x="75.13" y="74.87" width="9.51" height="9.51" transform="translate(-98.96 15.97) rotate(-45)"/><rect class="cls-1" x="112.81" y="112.54" width="9.51" height="9.51" transform="translate(-114.57 53.64) rotate(-45)"/><rect class="cls-1" x="110.57" y="74.47" width="9.51" height="9.51" transform="translate(-88.3 40.91) rotate(-45)"/><rect class="cls-1" x="73.47" y="111.56" width="9.51" height="9.51" transform="translate(-125.4 25.54) rotate(-45)"/><path class="cls-1" d="M134.39,67.65A12.31,12.31,0,1,0,146.7,80,12.31,12.31,0,0,0,134.39,67.65Zm.1,19.82A7.51,7.51,0,1,1,142,80,7.51,7.51,0,0,1,134.49,87.47Z" transform="translate(-66.06 -63.84)"/><rect class="cls-1" x="65.89" width="4.89" height="4.89"/><rect class="cls-1" x="65.98" y="26.67" width="4.89" height="4.89"/><rect class="cls-1" x="79.2" y="13.67" width="4.89" height="4.89"/><rect class="cls-1" x="51.87" y="13.4" width="4.89" height="4.89"/><rect class="cls-1" x="122.59" y="67.46" width="4.89" height="4.89" transform="translate(-78.86 45.05) rotate(-45)"/><rect class="cls-1" x="141.95" y="86.82" width="4.89" height="4.89" transform="translate(-86.88 64.4) rotate(-45)"/><rect class="cls-1" x="140.8" y="67.25" width="4.89" height="4.89" transform="translate(-73.39 57.86) rotate(-45)"/><rect class="cls-1" x="121.74" y="86.31" width="4.89" height="4.89" transform="translate(-92.45 49.96) rotate(-45)"/></svg>