<svg id="Layer_1" data-name="Layer 1" xmlns="http://www.w3.org/2000/svg" viewBox="0 0 74.35 74.6"><defs><style>.cls-1{fill:#ef3e23;stroke:#ef3e23;stroke-miterlimit:10;}</style></defs><path class="cls-1" d="M100.64,71.89l.91,0c.77,0,1.53,0,2.3,0,.15,0,.29-.15.44-.24l6.75-.17a3,3,0,0,1,.74.18c.17.08.34.23.51.23a8.68,8.68,0,0,1,1-.1c1.39.22,2.78.48,4.17.73.38.07.76.15,1.13.24.22,0,.43.12.65.18h0a1,1,0,0,0,1.16.52l.49.07.5.1,1.49.55c.16.11.31.31.48.33a8.45,8.45,0,0,1,2.73,1.11l.54.09c.31.2.63.38.92.59s.77.69,1.2,1c.83.53,1.71,1,2.52,1.54s1.4,1.06,2.09,1.6c1,.83,1.77,2,3,2.62,0,.62.55.78.86,1.13.38.67,1.1,1.07,1.36,1.84.09.27.51.41.73.64a7.67,7.67,0,0,1,.53.74,1.21,1.21,0,0,0,.22.15c-.12.59.38.85.66,1.23a.92.92,0,0,0,.49,1c0,.93,1.07,1.35,1.15,2.3a4.11,4.11,0,0,0,.49,1.18,6.87,6.87,0,0,0,.53,2,6.9,6.9,0,0,1,.58,2.21c.13.74.24,1.49.4,2.22a4.92,4.92,0,0,0,.37.89l0,.37,0,3.76v1.49l-.05,1c-.12.14-.34.28-.35.44-.08.72-.09,1.45-.13,2.18-.13.16-.35.3-.38.48-.09.54-.11,1.09-.15,1.63-.13.11-.36.23-.35.33a6.05,6.05,0,0,1-.71,2.6c-.18.41-.25,1-.56,1.19a1.16,1.16,0,0,0-.49,1s-.07.09-.09.15c-.15.32-.29.64-.43,1-.37.32-.85.54-.87,1.13a.43.43,0,0,1-.05.23,6.18,6.18,0,0,1-1.19,1.69,7.63,7.63,0,0,0-1.13,1.3c-.07,0-.18.07-.23.14-.37.5-.74,1-1.1,1.51s-.78.84-1.19,1.25-.64.57-1,.85c-.5-.31-.43.4-.75.41-.38.32-.89.57-1.11,1s-.92.56-1.28,1a1.25,1.25,0,0,1-.22.16l-1.5,1a2.07,2.07,0,0,1-.47.34,3.42,3.42,0,0,0-1.16.62l-.36.43-.38,0c-.16,0-.43,0-.45.1-.24.7-1,.6-1.47.83s-1.15.53-1.69.86c-.3-.12-.54-.1-.64.26l-.75.13c-.29.05-.65,0-.74.4a8.66,8.66,0,0,0-.89.12c-.68.16-1.37.33-2,.54a2.89,2.89,0,0,0-.66.41l-.52,0c-.6.06-1.3-.28-1.7.48h-2.5l-.13.48-2,0h-6.12l-2-.11c-.09-.13-.17-.37-.29-.39a5.34,5.34,0,0,0-1,0,5.44,5.44,0,0,0-.81.25,4.57,4.57,0,0,0-.68.47l-.37,0c0,.52-.5.4-.77.49a.94.94,0,0,0-.75.82l-1.48.66c-.21.11-.41.21-.61.33-.4.25-.79.51-1.2.74-.11.07-.34,0-.39.07a1.59,1.59,0,0,1-1.36.88c-.06,0-.14.29-.2.44l-1.11.53c-.2.13-.4.26-.59.4l-.9.67c-.64.14-1.32.22-1.69.88,0,.09-.2.14-.31.15a1.82,1.82,0,0,0-1.28.91.28.28,0,0,1-.13.11c-.34.19-.67.39-1,.55a6,6,0,0,1-.72.22,2.73,2.73,0,0,1-.18-.68c0-4.36,0-8.73,0-13.09,0-.33,0-.67,0-1a3.85,3.85,0,0,1,.08-1c.13-.35,0-.42-.25-.56-.53-.36-1.06-.72-1.57-1.11s-.93-.77-1.39-1.16h0a3.73,3.73,0,0,0-.26-.3c-.25-.22-.51-.43-.75-.66s-.61-.61-.91-.92-.47-.42-.67-.65-.49-.64-.73-1l-1-1.35,0,0-.75-.67-1.26-2.06c-.12-.21-.19-.47-.33-.67a3.15,3.15,0,0,1-.78-1.74s-.06-.06-.1-.06c-.38,0-.27-.39-.4-.56s.1-.72-.42-.68a2,2,0,0,0,0-.44c-.12-.32-.29-.62-.41-.93-.21-.55-.4-1.11-.6-1.67s-.27-1.26-.41-1.89c-.08-.34-.18-.68-.28-1.05.42-.61.14-1.16-.28-1.68l0-.5,0-5.37.07-1.48c0-.17.08-.33.1-.49a8.75,8.75,0,0,1,.09-.88A5.29,5.29,0,0,1,72,97.8l.12-1c0-.29,0-.74.14-.83.44-.27.37-.63.4-1a3.81,3.81,0,0,1,.15-.65c.06-.21.13-.42.2-.63l.12-.28.39-.05v0h0v0a6.78,6.78,0,0,1,.6-1.46c.51-.76.39-1.78,1.11-2.43a.29.29,0,0,0,.08-.22c-.1-.38.16-.57.39-.78l.11-.26.36-.25,0-.37a6.35,6.35,0,0,0,1-.83c.47-.61.54-1.46,1.24-2,.26-.18.38-.54.57-.82l.85-.67.41-.43,2.09-2.17.62-.51a8.4,8.4,0,0,0,.93-.51,7,7,0,0,0,.74-.7c.06-.06.07-.18.14-.22.43-.24.88-.46,1.3-.72.09,0,.11-.2.15-.31a9,9,0,0,1,1.72-1,13.14,13.14,0,0,0,2-1.15c.52-.29,1.21-.36,1.57-.94,0,0,.21,0,.31,0,.69-.23,1.38-.46,2.06-.72.1,0,.13-.23.2-.35l2.47-.29c.07,0,.13-.11.21-.14a3,3,0,0,1,.65-.25c.6-.12,1.28,0,1.73-.54l.42,0C99.87,72.29,100.5,72.73,100.64,71.89Zm-11,63.72v.73l-.08.6a3.28,3.28,0,0,0,.77-.31c.39-.32.61-.89,1.27-.8.07,0,.14-.13.23-.18s.5-.27.73-.43.59-.48.89-.71l.36-.29a5.17,5.17,0,0,0,.64-.28c.34-.22.55-.66,1.08-.61.16,0,.34-.24.52-.36s.27-.26.39-.24c.5.09.69-.3,1-.57s.28-.39.39-.38c.56.08.81-.34,1.15-.63.33-.06.76.1.89-.43,0-.08.32-.14.5-.14.41,0,.81,0,1.22,0l1.07,0,.06.43a3.13,3.13,0,0,0,.68,0,1.39,1.39,0,0,0,.43-.23c.18.09.35.25.53.25,1.7,0,3.39,0,5.09,0,1.29,0,2.57,0,3.86,0,.13,0,.25-.15.38-.23l1-.14a5.45,5.45,0,0,0,.81-.12c.13,0,.22-.23.33-.35l1.48-.16c.18,0,.48.06.52,0,.23-.44.54-.35.9-.27.09,0,.21-.13.32-.21l.25,0a.53.53,0,0,0,.25,0l3-1.18a.47.47,0,0,0,0-.12c.38-.21.75-.43,1.15-.61s.89-.35,1.34-.52,1.08-.49,1.62-.76a5.67,5.67,0,0,0,.86-.5c.08-.06.07-.26.1-.39l.54-.16c.45.16.41-.23.51-.45a9.25,9.25,0,0,1,.91-.86c.22-.16.59-.14.78-.32.76-.74,1.47-1.52,2.19-2.29a2.19,2.19,0,0,0,.47-.18,1.46,1.46,0,0,0,.74-1,15.3,15.3,0,0,0,2.26-2.81,6.77,6.77,0,0,0,.64-1.15c.14-.25.25-.51.37-.77s.55-.51.57-.78a1.09,1.09,0,0,1,.43-.84l.64-2c.1-.07.26-.11.29-.2.21-.63.41-1.27.59-1.91,0-.19,0-.43.08-.6a4.88,4.88,0,0,0,.46-2.55l0-.62,0-.75,0-1.12c.36,0,.47-.17.45-.53s0-.6-.46-.59l0-1,0-.38,0-1.25c-.05-.55-.06-1.1-.15-1.64s-.26-.92-.38-1.38a3.13,3.13,0,0,0-.39-1.12A15.62,15.62,0,0,1,138,93.67a5.15,5.15,0,0,0-.16-.56,17.63,17.63,0,0,0-.88-1.6c-.46-.75-1-1.48-1.45-2.22l-1.15-1.35a2.3,2.3,0,0,0-.27-.68c-.42-.43-.88-.82-1.33-1.22a5.57,5.57,0,0,0-.5-.59c-.41-.38-.84-.75-1.26-1.12l-.37-.48-.75-.37c-.57-.48-1.12-1-1.74-1.44s-1.3-.76-2-1.12l-2.29-1.22c-.61-.29-1.23-.58-1.85-.85-.21-.09-.55-.07-.64-.22-.41-.7-1.21-.58-1.79-.86a11.13,11.13,0,0,0-2.48-.63l-2-.42c-1-.36-2.17,0-3.24-.58a6.29,6.29,0,0,0-2.5-.07h-1.62c-1.29,0-2.57,0-3.85,0-.13,0-.25.28-.38.42l-3,.29c-.42-.2-.71.07-1.09.21a18.49,18.49,0,0,0-2.48.64,18.92,18.92,0,0,0-2.22.88,8.88,8.88,0,0,1-1.74.58c-.35.13-.66.21-.81.58l-.32.13h-.12a4.92,4.92,0,0,1-.56.29,4.71,4.71,0,0,0-.87.31,11.7,11.7,0,0,0-1.12.88c-.59,0-.83.5-1.14.87a9.51,9.51,0,0,0-.9.46c-.38.25-.73.54-1.09.82a.68.68,0,0,0-.67.34,3.1,3.1,0,0,1-.53.56l-1.33,1.44-1.1,1a6.19,6.19,0,0,0-.47.55c-.41.55-.8,1.11-1.19,1.68s-.73,1.09-1.09,1.64c-.13.13-.32.23-.39.39a6.84,6.84,0,0,1-.63,1.51,4.81,4.81,0,0,0-.94,2c-.17.75-.85,1.34-.64,2.18-.12.1-.31.18-.36.31s0,.58-.15.81a4.29,4.29,0,0,0-.44,2.63l-.05,1c-.23.12-.37.23,0,.38l0,2.74c.09.59-.23,1.13,0,1.77a13,13,0,0,1,.1,1.89,3,3,0,0,0,.49.92l0,.53a1.09,1.09,0,0,0,.57,1.21l.12.57.16.35c-.26.31.1.36.21.51l.66,1.73a1.23,1.23,0,0,0,.62,1.15,1.37,1.37,0,0,1,.18.24c.41.75.79,1.51,1.22,2.24.14.23.56.38.56.58,0,.85.84,1.09,1.21,1.67.48.77,1.37,1.28,2,2a13.74,13.74,0,0,0,3.8,3c.26.15.6.35.66.59.12.42.36.39.65.37l.46.51v4.14l0,3.86Z" transform="translate(-70.93 -70.91)"/></svg>