<svg id="Layer_1" data-name="Layer 1" xmlns="http://www.w3.org/2000/svg" viewBox="0 0 192.4 193.14"><defs><style>.cls-1{fill:#ef3e23;}</style></defs><path class="cls-1" d="M102.12,65.3Q96.3,59,90.49,52.71,79.15,40.44,67.8,28.15q-7.42-8-14.77-16.09c-.5-.54-.75-.42-1.17,0q-2.14,2.09-4.32,4.13c-3,2.87-6.11,5.69-9.13,8.58C33.62,29.34,28.86,34,24.09,38.59c-.84.81-1.62,1.69-2.44,2.56l6.5,7,7.42,8L71.9,95.5c2.85,3.1,5.72,6.19,8.59,9.3l30.22-30.19C107.85,71.5,105,68.41,102.12,65.3ZM99,66.47,86.77,78.14l-2.65-2.87L96.33,63.61Zm-7.45-8c.91,1,1.74,1.89,2.65,2.86l-6.1,5.83-2.64-2.89Zm-1.08-1.18L78.23,68.91,75.59,66c4.08-3.89,8.1-7.73,12.2-11.66Zm-4.27-4.61-6.1,5.82c-.9-1-1.76-1.92-2.65-2.88l6.11-5.81Zm-8.8-9.53-6.1,5.83L68.65,46l6.09-5.8Zm-8-8.66-6.1,5.82L60.64,37.4l6.1-5.83Zm-8.94-9.39c-2.06,1.95-4.05,3.85-6.1,5.82L51.71,28c2-1.95,4-3.86,6.09-5.81C58.7,23.15,59.55,24.08,60.45,25.05ZM37.15,47.2a4.82,4.82,0,0,1-4.7-4.8A4.56,4.56,0,0,1,37,37.81a4.79,4.79,0,0,1,4.69,4.79A4.56,4.56,0,0,1,37.15,47.2Zm3.91-18.27,12.2-11.64,2.65,2.85L43.7,31.8ZM50,38.33,62.21,26.67c.92,1,1.74,1.9,2.64,2.87L52.64,41.19Zm8.81,9.52C62.89,43.93,66.91,40.1,71,36.2c.89.95,1.73,1.85,2.66,2.86C69.54,43,65.53,46.82,61.43,50.72,60.53,49.75,59.68,48.82,58.8,47.85ZM69.43,59.38c-.89-1-1.75-1.91-2.64-2.87L79,44.85l2.65,2.87Zm34.09,12c-2.09,2-4.08,3.87-6.11,5.82l-2.63-2.88,6.09-5.81ZM92.93,84.79l12.19-11.65L107.79,76,95.56,87.67Zm110.45,89.67c-1.11-1.06-2.3-2.05-3.35-3.18Q174.52,143.65,149,116l-8.59-9.3-30.22,30.19,8.59,9.3q4.08,4.42,8.17,8.84L154,184.36l16.47,17.84a30.58,30.58,0,0,0,2.34,2.48,1.38,1.38,0,0,0,1.31,0,33.7,33.7,0,0,0,2.44-2.34c2.46-2.41,4.91-4.82,7.39-7.21,3.52-3.39,7.07-6.76,10.61-10.14,2.07-2,4.12-4,6.2-5.9.87-.83,1.81-1.58,2.68-2.41C204.44,175.68,204.42,175.45,203.38,174.46Zm-8-3.91-6.08,5.8c-.92-1-1.75-1.9-2.64-2.87l6.09-5.81Zm-8-8.67-6.11,5.82-2.63-2.87c2-2,4-3.85,6.08-5.81Zm-8.8-9.52-6.1,5.81-2.64-2.85,6.09-5.84C176.86,150.48,177.7,151.41,178.58,152.36Zm-8-8.66c-2,2-4,3.85-6.09,5.82-.91-1-1.74-1.89-2.66-2.87,2.07-2,4.08-3.88,6.11-5.83C168.87,141.84,169.7,142.74,170.57,143.7ZM162,134.47l-6.09,5.8-2.65-2.86,6.1-5.82Zm-8-8.67L148,131.62l-2.66-2.87,6.1-5.81Zm-8.79-9.52c-2.07,2-4.06,3.87-6.1,5.82-.92-1-1.77-1.92-2.64-2.88l6.09-5.81Zm-6.38-6.91,2.64,2.87L129.3,123.9,126.65,121ZM135,130l-.3-.33L146.87,118l0,0,2.58,2.84-12.2,11.65Zm8.49,9.2,12.22-11.67,2.64,2.88c-4.09,3.9-8.14,7.75-12.21,11.65Zm10.38,11.24-2.64-2.88,12.2-11.66,2.65,2.87Zm6.15,6.65c4.09-3.9,8.13-7.75,12.21-11.66.92,1,1.75,1.88,2.65,2.87-4.1,3.91-8.14,7.76-12.21,11.66Zm10.65,11.53c-.91-1-1.75-1.89-2.65-2.88l12.21-11.65,2.65,2.86Zm8.81,9.51-2.66-2.86L189,163.63l2.63,2.87Zm8,8.66L184.78,184c4.12-3.93,8.16-7.78,12.21-11.66l2.63,2.87C195.53,179.08,191.51,182.91,187.43,186.81Zm-69.58-75.3,12.22-11.66,1.53,1.65,2.06-2L117.41,81.86l-2.19,2.2c.18.2.37.4.55.61l-12.2,11.66c-.11-.11-.2-.22-.3-.33L87.19,112.06q8.13,8.77,16.25,17.57,8.09-8.1,16.2-16.18C119.05,112.8,118.46,112.16,117.85,111.51Zm10.46-13.29L122.22,104l-2.66-2.86,6.1-5.81ZM117.43,86.49l2.89,3.07-6.11,5.84-2.35-2.57C113.73,90.7,115.52,88.65,117.43,86.49ZM109.71,103l12.22-11.66,2.65,2.87-12.21,11.66Z" transform="translate(-11.77 -11.7)"/><path class="cls-1" d="M155.67,77.78c-.67.57-1.37,1.07-2,1.67l-20,20-2.06,2q-6,6-12,12-8.1,8.08-16.2,16.18Q85.6,147.44,67.83,165.29c-5.75,5.78-15.35,5-19.39-2.34a11.93,11.93,0,0,1,2.27-14.44q7.8-7.83,15.64-15.62l20.84-20.83L103.27,96l12-11.94,2.19-2.2q10.08-10,20.15-20.13c.31-.32.58-.68,1.05-1.23,5.63,5.66,11.07,11.15,16.51,16.63C155.24,77.25,155.34,77.39,155.67,77.78Z" transform="translate(-11.77 -11.7)"/><path class="cls-1" d="M178.54,86.51,129.78,37.59c4.71-4.05,8.33-9.5,14.15-12.5a23,23,0,0,1,26.63,3.8q8.53,8.25,16.79,16.78a23.14,23.14,0,0,1-.3,32.31Z" transform="translate(-11.77 -11.7)"/><path class="cls-1" d="M131.64,53.83c-.9.86-1.86,1.74-2.78,2.65L110.71,74.61,80.49,104.8Q62.28,123,44.11,141.16c-1.9,1.91-4,2.92-6.7,2.24a6.29,6.29,0,0,1-2.78-10.66c4.09-4.17,8.25-8.25,12.38-12.37L71.9,95.5l30.22-30.2,19.46-19.45a10,10,0,0,0,.91-1.18C125.67,47.86,128.57,50.77,131.64,53.83Z" transform="translate(-11.77 -11.7)"/><path class="cls-1" d="M171.4,93.62c-2.16,2.16-4.39,4.38-6.62,6.62L149,116l-2.05,2-12,12-16.21,16.19q-17.44,17.43-34.89,34.88c-1.72,1.71-3.64,2.7-6.08,2.26a6.33,6.33,0,0,1-3.37-10.7c4.42-4.47,8.89-8.9,13.33-13.34l22.42-22.4,30.22-30.19,21-21a12.81,12.81,0,0,0,1-1.25Z" transform="translate(-11.77 -11.7)"/><path class="cls-1" d="M11.77,204.34Q19,175.47,26,147.35a39.17,39.17,0,0,0,5.06,4,41.66,41.66,0,0,0,6.3,2.4,20.93,20.93,0,0,0,6.22,19,21.11,21.11,0,0,0,19.26,6c1.89,8,2.79,8,6.08,11.36Z" transform="translate(-11.77 -11.7)"/></svg>