<svg id="Layer_1" data-name="Layer 1" xmlns="http://www.w3.org/2000/svg" viewBox="0 0 112.78 137.45"><defs><style>.cls-1{fill:#ef3e23;}</style></defs><path class="cls-1" d="M76.1,69.28A24.43,24.43,0,0,1,76.35,65c.17-1.08.37-2.16.62-3.23a26.41,26.41,0,0,1,2.47-6.51,28.48,28.48,0,0,1,4.71-6.63,22.35,22.35,0,0,1,2.76-2.57,29.6,29.6,0,0,1,3.56-2.55c1.2-.67,2.44-1.26,3.69-1.81,1-.43,2-.78,3-1.12a21.72,21.72,0,0,1,3.64-.89,30.88,30.88,0,0,1,6.15-.4c1.1.06,2.19.21,3.29.31a19.22,19.22,0,0,1,3.62.74,31.82,31.82,0,0,1,6.64,2.74,30.34,30.34,0,0,1,2.56,1.67c.88.63,1.74,1.3,2.57,2a25.44,25.44,0,0,1,3.2,3.28,27.91,27.91,0,0,1,1.84,2.48c.67,1,1.28,2.15,1.87,3.24a23.65,23.65,0,0,1,1.8,4.43,22.46,22.46,0,0,1,.83,3.65c.06.43.16.87.23,1.3a21.32,21.32,0,0,1,.25,4.22c0,.74,0,1.48-.09,2.22,0,.43-.11.85-.16,1.28a25.71,25.71,0,0,1-.79,4,32.4,32.4,0,0,1-1.42,4c-.38.91-.85,1.76-1.29,2.63a30.16,30.16,0,0,1-1.71,2.76,9,9,0,0,1-.67.86l-2.9,3.48-1.9,2.24-3.29,3.9c-1.06,1.25-2.14,2.48-3.19,3.73s-1.92,2.28-2.88,3.42c-.37.44-.76.86-1.13,1.31-.73.86-1.44,1.73-2.16,2.59l-.94,1.1-3.61,4.21c-.47.56-.94,1.13-1.42,1.69-.16.2-.27.19-.45,0l-2.05-2.43c-.69-.82-1.4-1.62-2.09-2.44s-1.38-1.67-2.08-2.5c-.43-.52-.88-1-1.31-1.53l-1.7-2c-.78-.91-1.57-1.82-2.35-2.74s-1.49-1.8-2.24-2.69c-.44-.51-.89-1-1.32-1.52l-1.77-2.08c-.43-.5-.86-1-1.28-1.49s-1-1.26-1.58-1.88c-.31-.37-.64-.72-.94-1.09-.79-1-1.56-1.9-2.34-2.86-.28-.35-.6-.69-.86-1.06a33.68,33.68,0,0,1-2-3.23,27.11,27.11,0,0,1-2.09-4.82c-.18-.59-.39-1.17-.54-1.76a36.81,36.81,0,0,1-.73-3.62A32,32,0,0,1,76.1,69.28Zm29.74,10.94a12.22,12.22,0,1,0-12.16-12.3A12.2,12.2,0,0,0,105.84,80.22Z" transform="translate(-45 -39.27)"/><path class="cls-1" d="M82.44,90.37l-.73,78.57L45,176.73l.6-83.79,33.75-7.26.23.43a31.9,31.9,0,0,0,2,3.23A11.57,11.57,0,0,0,82.44,90.37Z" transform="translate(-45 -39.27)"/><path class="cls-1" d="M120.53,175.73l-37.17-6.79.71-76.58.74.9c.3.37.63.72,1,1.09l1.56,1.88,1.29,1.49,1.77,2.08c.44.51.88,1,1.31,1.52.76.89,1.5,1.79,2.25,2.69s1.57,1.83,2.35,2.74c.56.67,1.13,1.33,1.7,2,.43.51.88,1,1.31,1.52.7.83,1.38,1.67,2.08,2.5s1.4,1.62,2.09,2.44l2,2.43c.18.21.29.22.45,0,.48-.56,1-1.12,1.42-1.69l3.61-4.21c.31-.37.63-.73.93-1.1.73-.86,1.44-1.73,2.16-2.59.38-.44.77-.87,1.14-1.31,1-1.13,1.91-2.28,2.87-3.42l1.68-2Z" transform="translate(-45 -39.27)"/><path class="cls-1" d="M157.78,85.17v82.71l-35.59,7.85-1-76,.11-.13c1.11-1.29,2.2-2.6,3.3-3.9l1.9-2.24,2.32-2.79Z" transform="translate(-45 -39.27)"/></svg>