<svg id="Layer_1" data-name="Layer 1" xmlns="http://www.w3.org/2000/svg" viewBox="0 0 168.07 138.18"><defs><style>.cls-1{fill:#ef3e23;}</style></defs><path class="cls-1" d="M191.79,38.83V164.3a3,3,0,0,0-.86-.17,8.8,8.8,0,0,0-2.1.55,13.54,13.54,0,0,1-3.73.5,14,14,0,0,0-2,.51,19.29,19.29,0,0,0-4.46.9,5,5,0,0,1-2.3.48c-.39,0-1.07.06-1.13.26-.23.69-.73.41-1.13.48-1.19.21-2.49-.11-3.51.84-.1.1-.34,0-.52.08a10.85,10.85,0,0,0-2.29.38c-1.73.65-3.67.09-5.35,1.06a4.33,4.33,0,0,1-1.72.22,7,7,0,0,0-1.66.12c-.82.26-1.56.77-2.39,1a12,12,0,0,1-1.92.17,1.86,1.86,0,0,0-.61.34c-.13.07-.23.19-.36.22-1.5.28-3,.53-4.51.82-1.13.23-2.25.52-3.38.78l-1.65.35a5.05,5.05,0,0,1-1.09,0,3.66,3.66,0,0,0-1.62.43,12.15,12.15,0,0,1-2.82.39,4.44,4.44,0,0,0-1.69.56c-.7.47-3.46.85-4,.28s-1.53-.66-2.27-.91a24.24,24.24,0,0,0-4.21-.76c-.46-.08-.93-.09-1.39-.18a13.93,13.93,0,0,1-3.23-.73,23.59,23.59,0,0,0-3.54-.71c-1.48-.38-3-.47-4.53-1a10,10,0,0,1-2.12-.57,9.87,9.87,0,0,0-3.09-.63l-.68-.12-3.21-.62c-.11,0-.22-.07-.33-.1-1.15-.28-2.28-.62-3.44-.84a16.39,16.39,0,0,1-3.48-.65c-1.12-.45-2.46-.16-3.67-.81a12.86,12.86,0,0,0-3-.72c-.8-.19-1.58-.43-2.38-.61-1-.21-1.91-.39-2.87-.56-.68-.12-1.37-.22-2.06-.29a27.29,27.29,0,0,0-3.7-.31,39.84,39.84,0,0,0-4.48.49,5.2,5.2,0,0,0-1.58.5c-.76.39-1.75-.18-2.4.67a1.74,1.74,0,0,1-1,.48c-1.33.25-2.69.09-4,.79-1,.53-2.27.18-3.46.74s-2.39.26-3.64.71c-2,.68-4.2.31-6.21,1.07-1.08.41-2.29,0-3.37.69a8.64,8.64,0,0,1-2.49.7c-1,.25-2,.49-3,.71-.29.06-.6,0-.88.08-.84.24-1.66.52-2.48.79s-1.66.13-2.54.44c-1.88.66-4,.3-6,1a24.77,24.77,0,0,1-3.87.77,1,1,0,0,0-.24.09c-.45.17-.9.51-1.33.48-1.22-.08-2.11.68-3.16,1V51.54c.26.07.55.25.76.19.67-.19,1.35,0,2.05-.57s1.71-.23,2.59-.31c.23,0,.57,0,.66-.12.35-.5.8-.35,1.27-.36s1.48,0,1.79-.34c.49-.56.92-.35,1.43-.37a3.1,3.1,0,0,0,1.09-.2c.47-.19,1.11.18,1.46-.57.11-.22,1-.06,1.52-.11s1.56,0,1.92-.33A1.59,1.59,0,0,1,41.38,48l5.44-.85a1.29,1.29,0,0,0,.26-.08,10.18,10.18,0,0,1,2.17-.65c.73-.07,1.21-.69,2-.58a3.56,3.56,0,0,0,2.24-.29c.84-.57,1.68-.35,2.52-.49a13.17,13.17,0,0,0,1.52-.3c.37-.11.7-.42,1.08-.48.72-.11,1.46-.09,2.19-.16.2,0,.37-.21.55-.32a1.24,1.24,0,0,1,.43-.24c.67-.08,1.35-.09,2-.22.32-.06.62-.5.92-.48a18.09,18.09,0,0,0,4.63-.84c.81-.17,1.58-.45,2.38-.63a10.26,10.26,0,0,1,1.82-.21c.94,0,1.7-.71,2.66-.6a2.84,2.84,0,0,0,1-.1c.76-.21,1.51-.45,2.27-.7,1.69-.55,3.08.85,4.71.75a5.13,5.13,0,0,1,1.45.2c1.59.37,3.15.81,4.74,1.13A14.35,14.35,0,0,1,94,42.6c1,.46,2.27.25,3.39.76s2.35,0,3.49.76a9,9,0,0,0,2.78.79c1.19.3,2.44.09,3.64.66s2.47.18,3.72.73c1,.44,2.19.28,3.31.77s2.43.15,3.62.75,2.64-.07,3.89.89c.61.46,1.69.13,2.59.6,1.14.58,2.58.29,3.88.74a24.16,24.16,0,0,0,5,.87,16.71,16.71,0,0,0,3.24,0,22.25,22.25,0,0,0,2.23-.49c.75-.13,1.51-.18,2.25-.33.4-.08.75-.36,1.14-.45,1.2-.29,2.44,0,3.65-.71.93-.54,2.19-.32,3.33-.79,1.59-.65,3.45-.63,5.19-.92a8.46,8.46,0,0,0,2.15-.53c.88-.43,1.95,0,2.77-.79.3-.3,1.14,0,1.74-.09s1.45,0,1.66-.28c.39-.59.79-.3,1.2-.35a15.91,15.91,0,0,0,1.68-.28c.22-.06.38-.42.6-.45.74-.12,1.51-.1,2.25-.24s1.36-.48,2.07-.62,1.39-.1,2.08-.22c.39-.06.75-.38,1.14-.43.86-.11,1.74-.09,2.6-.19a3.15,3.15,0,0,0,.88-.4,3,3,0,0,1,1.15-.35l3.66-.65c.45-.08,1.15,0,1.34-.23.65-.91,1.54-.25,2.27-.48.52-.17,1.31,0,1.59-.3.51-.56,1-.48,1.63-.5A8.36,8.36,0,0,0,191.79,38.83ZM137.24,170.47l1.73-.13c.5-.05,1-.06,1.49-.15a4.3,4.3,0,0,0,1.09-.39c1-.49,2.08-.19,3.11-.8s2.33-.09,3.49-.8a9.47,9.47,0,0,1,3-.62l4.31-.92a8,8,0,0,0,.87-.1c.75-.26,1.55-.27,2.31-.5,1.32-.39,2.76-.41,4.12-.87a27.66,27.66,0,0,1,3.63-.82c.58-.12,1.19-.07,1.77-.19.36-.07.67-.44,1-.47,1.26-.12,2.53-.14,3.65-.19.24-.27.37-.53.58-.63.67-.33,1.49,0,2.17-.65.36-.37,1.27-.18,1.93-.26s1.16.12,1.75-.47c.37-.38,1.34-.14,2-.27.39-.07.75-.41,1.14-.46,1-.13,2.1-.1,3.14-.27,1.42-.24,1.58-.51,1.58-2v-112c0-.14,0-.3,0-.44.06-.57-.23-.76-.75-.68s-1.09.2-1.65.28a15.64,15.64,0,0,0-2.3.54c-.9.27-1.88.44-2.82.74s-2.21.16-3.36.69-2.56.38-3.87.75a25.28,25.28,0,0,1-4.46.51c-.2,0-.49,0-.59,0-.8.89-1.87.55-2.84.7-.37.06-.72,0-1.15.28a7.14,7.14,0,0,1-2.27.83c-.27.08-.59,0-.86.11-.55.18-1.07.46-1.63.6a18.19,18.19,0,0,0-3.14.63c-1,.42-2.37.35-3.56.78a24.57,24.57,0,0,1-3.13.44,10.46,10.46,0,0,0-2.79.5c-1.31.61-2.92.57-4.4.82-.08,0-.16,0-.25.07l-3.89.75c-.06,0-.1.06-.19.11ZM78.31,160.38V46.18a1.06,1.06,0,0,0-1.19-1.1c-.51,0-.77.46-1.16.52a3.87,3.87,0,0,0-1.85.61c-.48.35-1.37.1-2.07.18-.21,0-.39.24-.59.36A1.31,1.31,0,0,1,71,47a12.82,12.82,0,0,0-3.67.64c-1,.44-2.36.38-3.55.76-1.7.55-3.55.19-5.3.94-1,.45-2.29.15-3.45.73a15.39,15.39,0,0,1-3.47.77c-.7.16-1.36.48-2.07.62-1.5.31-3,.53-4.54.83-1,.2-1.9.53-2.86.7-1.91.35-3.83.63-5.74.94-.06,0-.11.08-.16.08a10.37,10.37,0,0,0-2.58.58,20.37,20.37,0,0,0-4.44,1,1.17,1.17,0,0,0-.84,1.29q0,56.33,0,112.66c0,.82,1.1,1.5,1.72,1s1.59-.18,2.4-.72,2.09-.22,3.15-.74,2.59.17,3.62-.88a14.45,14.45,0,0,0,4.83-.85,8.33,8.33,0,0,0,2-.55,6.59,6.59,0,0,1,2.17-.29c.47-.05,1,.13,1.29-.5.11-.2.91,0,1.37,0,1.34-.25,2.68-.55,4-.86.9-.21,1.78-.49,2.69-.69.54-.11,1.12-.06,1.66-.18.32-.08.57-.44.89-.5,1.57-.31,3.16-.54,4.73-.85.81-.15,1.59-.43,2.39-.59s1.46-.15,2.17-.29c.52-.11,1-.37,1.51-.51a6.12,6.12,0,0,1,1-.09,13.7,13.7,0,0,0,2.75-.56A19.38,19.38,0,0,1,78.31,160.38ZM132.71,55.7c-1.19-.33-2.23-.69-3.29-.91-1.55-.3-3.12-.5-4.67-.73-.64-.1-1.41,0-1.9-.26-1-.66-2.13-.51-3.19-.71-.66-.13-1.33-.2-2-.36-1.52-.36-3-.78-4.54-1.12-.78-.17-1.73,0-2.35-.37-1-.63-2.14-.47-3.18-.89a23.13,23.13,0,0,0-4.17-.93c-1.07-.22-2.15-.39-3.22-.59l-2.76-.54c-.64-.14-1.27-.32-1.92-.44s-1.36-.19-2-.33-1.33-.31-2-.51-1.62.42-2.09-.59c0-.06-.23,0-.35,0-1.08-.21-2.17-.41-3.25-.65-.47-.1-.91-.3-1.36-.44-1-.32-1.68.17-1.68,1.28V160.29c1.87.39,3.72.33,5.45,1a18.11,18.11,0,0,0,1.82.25c1.58.38,3.13.86,4.71,1.21,1.73.39,3.49.66,5.23,1l5,1a1.39,1.39,0,0,0,.56.31c.85.16,1.74.2,2.59.39,1.38.32,2.73.76,4.11,1.07,1,.22,2,.23,2.92.49,1.27.36,2.51.87,3.76.54.21.2.38.49.55.49,1.64,0,3.11.78,4.73.89.64,0,1.5-.33,1.91.59,0,0,.17,0,.26,0a13.65,13.65,0,0,1,4.52,1.08c1.15.45,1.83-.14,1.83-1.37V55.7Z" transform="translate(-23.72 -38.83)"/></svg>