<svg id="Layer_1" data-name="Layer 1" xmlns="http://www.w3.org/2000/svg" viewBox="0 0 159.02 126.65"><defs><style>.cls-1{fill:none;stroke:#ef3e23;stroke-miterlimit:10;stroke-width:6px;}</style></defs><path class="cls-1" d="M108,69.33a28.3,28.3,0,1,0,.22,14.55" transform="translate(-28.6 -44.89)"/><path class="cls-1" d="M31.6,171.54V143.22a31.3,31.3,0,0,1,31.3-31.31H98.57a31.31,31.31,0,0,1,31.31,31.31v28.32" transform="translate(-28.6 -44.89)"/><path class="cls-1" d="M163.8,76.21a28.32,28.32,0,0,1-55.58,7.67A28.43,28.43,0,0,0,108,69.33a28.32,28.32,0,0,1,55.8,6.88Z" transform="translate(-28.6 -44.89)"/><path class="cls-1" d="M184.62,170.75V142.43a31.31,31.31,0,0,0-31.31-31.31H117.64a31.22,31.22,0,0,0-10.76,1.9h0" transform="translate(-28.6 -44.89)"/></svg>