<svg id="Layer_1" data-name="Layer 1" xmlns="http://www.w3.org/2000/svg" viewBox="0 0 163.63 144.99"><defs><style>.cls-1{fill:#ef3e23;}</style></defs><path class="cls-1" d="M26.29,166.59q25-43.5,50.05-87,10.2-17.7,20.41-35.4c5.58-9.66,17.1-9.69,22.7,0q34.05,58.86,68,117.75c.88,1.52,1.64,3.1,2.46,4.65v5.09c-3.2,8.13-6.36,10.24-15.31,10.24h-133c-9,0-12.09-2-15.32-10.24ZM108.11,49.42,38.93,169.25H177.29Z" transform="translate(-26.29 -36.93)"/><path class="cls-1" d="M99.59,94c-.2-5.23,1.59-8.63,5.34-10,3.42-1.29,7.71-.37,9.76,2.68a10.37,10.37,0,0,1,1.86,6c-1,13.63-2.19,27.25-3.48,40.86-.35,3.73-2.52,5.41-5.74,4.94-2.65-.38-4-2-4.2-4.67q-1.34-14.82-2.68-29.63C100.14,100.7,99.87,97.33,99.59,94Z" transform="translate(-26.29 -36.93)"/><path class="cls-1" d="M115.12,148.35a7,7,0,1,1-14,0,7,7,0,1,1,14,0Z" transform="translate(-26.29 -36.93)"/></svg>